<svg width="500" height="500" viewBox="0 0 500 500" fill="none" xmlns="http://www.w3.org/2000/svg">
<path d="M64.0884 290.111C64.5672 290.94 65.2583 292.278 65.8655 292.821C65.5248 291.621 65.0411 290.669 64.0884 290.111Z" fill="#A6A6A6"/>
<path d="M162.341 90.585L163.382 89.9482C163.126 89.9482 162.894 89.9482 162.676 89.9482L162.341 90.585Z" fill="#A6A6A6"/>
<path d="M162.676 89.948L163.911 87.6724C161.245 89.6123 161.63 89.9332 162.676 89.948Z" fill="#A6A6A6"/>
<path d="M79.1985 308.276C80.2549 310.132 81.4791 311.89 82.9797 313.336L79.1985 308.276Z" fill="#A6A6A6"/>
<path d="M79.9883 285.258C80.2302 284.982 80.4079 284.528 80.5313 283.733C80.2302 284.231 80.0821 284.755 79.9883 285.258Z" fill="#A6A6A6"/>
<path d="M207.404 441.315C207.039 441.424 206.693 441.532 206.348 441.636C206.861 441.616 207.222 441.522 207.404 441.315Z" fill="#A6A6A6"/>
<path d="M224.499 441.666C225.881 441.981 227.105 442.139 228.31 442.258L228.571 441.967C227.969 441.448 225.669 441.596 224.499 441.666Z" fill="#A6A6A6"/>
<path d="M218.19 438.713L221.581 439.054C220.362 438.837 219.242 438.733 218.19 438.713Z" fill="#A6A6A6"/>
<path d="M318.526 408.197L318.308 406.603C318.195 407.378 318.294 407.876 318.526 408.197Z" fill="#A6A6A6"/>
<path d="M203.273 442.233C204.344 442.169 205.346 441.927 206.348 441.636C204.754 441.68 202.295 441.196 203.273 442.233Z" fill="#A6A6A6"/>
<path d="M63.3182 289.706C63.6342 289.8 63.8464 289.962 64.0883 290.111C63.7477 289.572 63.4663 289.281 63.3182 289.706Z" fill="#A6A6A6"/>
<path d="M84.0953 322.394L84.0262 322.093C83.4634 320.879 83.6165 321.377 84.0953 322.394Z" fill="#A6A6A6"/>
<path d="M248.41 68.5047C250.671 68.4405 252.937 68.4504 255.208 68.2924C250.02 67.5618 248.415 67.8185 248.41 68.5047Z" fill="#A6A6A6"/>
<path d="M151.372 415.39C151.673 410.197 158.945 419.763 160.529 415.577C156.269 414.131 152.981 412.995 152.483 409.895C156.886 409.589 160.154 414.935 163.535 412.364C163.471 412.517 157.192 410.315 157.192 410.315C154.591 406.514 161.003 406.904 157.567 405.171C154.003 405.912 150.02 403.345 146.91 399.603C143.741 395.911 140.962 391.824 138.355 390.367L140.359 391.251C140.359 391.251 138.893 389.459 137.555 387.564C136.297 385.594 135.043 383.619 135.043 383.619C135.043 383.476 135.166 383.481 135.191 383.378C134.885 383.501 134.574 383.614 134.263 383.822C133.399 379.374 129.499 374.053 124.38 368.865C123.373 368.85 121.848 367.808 120.056 366.234C118.269 364.659 116.127 362.625 114.384 360.241C110.717 355.616 106.985 350.946 104.966 350.235C107.395 352.358 109.063 354.396 110.746 358.005L107.543 359.649C103.307 353.883 109.947 357.353 104.127 353.143C100.889 356.884 110.06 361.08 112.558 365.345C110.613 364.595 108.337 363.163 106.067 360.942C107.508 363.035 108.94 365.108 110.332 367.132C111.827 369.072 113.437 370.849 115.021 372.508C118.284 375.736 121.522 378.491 125.768 379.083C127.155 381.749 124.765 382.297 122.816 381.191C130.205 384.108 124.933 386.848 131.355 389.207C129.095 390.17 125.837 387.998 122.332 385.278C118.679 382.701 115.549 378.851 112.336 377.38C111.368 374.991 109.981 372.779 108.303 370.671C106.684 368.519 105.02 366.263 103.1 364.156C101.204 362.023 99.1806 359.935 97.1814 357.852C95.1525 355.788 93.5877 353.444 91.9834 351.262C94.5898 349.184 100.79 353.962 100.232 349.386C96.9494 339.513 93.2126 341.75 88.918 337.322C86.7509 330.125 93.489 334.088 88.6958 323.732L93.5631 328.895C95.1081 321.076 88.9821 324.191 88.1035 319.127C87.5358 321.116 86.3215 321.629 88.9871 326.733C87.7185 327.972 85.0479 324.305 84.0903 322.394C84.0903 322.394 84.4457 323.722 84.4802 323.712C81.4592 322.36 78.9664 322.463 77.446 314.995C81.6567 318.44 77.3621 308.76 78.0087 306.652C77.9544 306.672 79.1934 308.281 79.1934 308.281C76.6759 303.459 75.891 297.871 74.4743 294.711L75.2098 294.835C74.1584 293.004 72.6972 291.893 71.399 290.481C70.234 289.045 69.3109 287.282 69.227 284.251C70.6882 284.681 75.4369 290.891 73.8622 284.597C74.9482 284.868 75.8071 286.749 76.4044 289.282C77.2633 291.764 77.9297 294.904 78.2753 297.811C77.5694 291.972 80.1856 288.556 82.1157 295.21C84.3173 292.757 79.1391 289.198 79.9832 285.254C79.2971 286.053 78.2309 285.041 77.4707 285.461C80.9458 284.651 75.6985 271.97 73.1909 271.901L76.202 278.54C73.4525 279.518 70.2686 270.997 69.0888 273.969C70.9103 272.069 70.3624 267.448 69.4047 262.724C68.5458 258.005 67.445 253.148 69.617 251.341L67.1735 253.893C68.3335 246.548 67.3858 239.795 66.9563 232.864C66.8378 229.379 66.7144 225.875 66.591 222.296C66.5565 220.489 66.5466 218.653 66.591 216.792C66.749 214.951 67.06 213.099 67.3907 211.204C67.3858 216.649 72.1937 217.981 69.1777 226.768C72.248 213.075 74.6175 223.569 77.6385 219.818C81.8294 210.014 74.4891 213.489 73.7882 209.871L72.7713 217.389C71.2756 212.137 73.0872 205.117 75.9799 197.92C79.2527 190.797 82.5847 183.205 84.574 175.756C86.4103 175.391 83.9965 178.91 83.6312 180.979C89.2388 176.136 85.9118 174.843 86.7065 170.593C88.3207 167.448 90.8431 164.408 92.8127 162.734C94.8021 161.066 96.357 160.858 96.8013 163.593C101.481 157.615 94.5158 163.159 95.656 159.101L97.0826 158.316C97.0826 158.316 97.285 156.031 97.4924 153.745C97.5713 152.575 97.754 151.46 97.9169 150.635C98.065 149.801 98.1686 149.243 98.1686 149.243C103.288 144.549 109.414 138.995 114.177 139.252C124.04 127.548 111.576 129.661 118.822 120.46C124.948 117.399 119.795 123.293 120.333 124.66L127.599 117.562C127.599 122.992 120.278 126.921 124.05 129.829C125.387 125.366 127.298 123.224 129.539 120.993C131.844 118.801 134.288 116.288 137.945 111.821L137.126 111.92C138.148 109.16 141.381 106.436 144.95 103.879C148.549 101.351 152.824 99.5346 155.459 97.486C154.211 100.655 147.887 104.239 144.629 107.931C151.303 104.668 166.334 94.2626 170.639 88.0033C172.712 87.3863 175.97 86.399 178.132 86.2509C180.339 86.2065 181.331 86.7446 178.793 88.5858C193.04 84.1826 182.51 80.7075 195.404 77.6914L195.819 80.8457C199.585 81.0431 203.036 80.4804 206.378 79.5079C209.71 78.5059 212.938 77.1188 216.28 76.2006C222.89 74.1965 229.618 71.6246 236.529 73.6436L237.126 69.7735C240.181 71.2396 246.204 71.7036 247.329 73.1401L240.507 74.7888C246.268 77.795 247.206 71.1261 254.289 73.8707C254.294 72.7057 248.43 69.7883 248.395 68.5049C244.713 68.959 241.045 69.2996 237.383 69.5563C233.725 69.892 230.032 69.7636 226.409 70.4103C219.163 71.5012 211.729 71.7332 204.566 73.5942L193.716 75.9883C190.167 77.0496 186.687 78.3627 183.197 79.6461C176.113 81.981 169.651 85.8906 163.372 89.9433C164.602 89.8791 166.038 89.7656 165.697 90.7529C164.054 91.0638 161.951 91.9968 160.356 92.7718C158.782 93.5814 157.572 94.0059 157.464 92.8656L158.234 92.0708C155.124 94.4748 151.481 95.5608 148.04 96.4099C146.313 96.8344 144.664 97.2342 143.178 97.5995C141.761 98.108 140.527 98.6806 139.579 99.4013C138.641 103.36 125.758 108.375 131.395 109.763C131.326 109.644 125.649 110.977 125.649 110.977C125.452 113.396 127.52 114.472 125.753 117.221C121.577 120.529 120.239 119.344 122.618 115.647C106.022 128.116 90.8629 148.439 82.5106 167.947C82.5106 167.947 82.6637 166.422 82.8167 164.901C82.9747 163.371 83.3103 161.92 83.3103 161.92C79.7463 165.938 78.453 180.298 75.4073 174.019C73.8622 179.103 71.2114 185.718 69.2073 191.33C67.0452 196.884 66.438 201.642 69.0592 202.758C65.7222 205.335 63.1553 211.317 62.0842 218.539C61.2894 225.81 60.4651 234.024 60.8501 241.281C63.2936 240.229 63.4713 243.186 63.3034 246.879C63.106 250.571 62.5729 255.063 63.9303 256.949C62.2323 257.97 60.8254 255.004 60.2972 251.687C59.6604 248.379 59.1964 244.741 57.9673 244.563C59.3445 248.404 59.1471 252.842 59.6111 257.516C59.8678 262.186 59.7147 267.103 59.6752 271.772C60.1936 281.043 61.5708 289.331 66.6651 291.449C66.7391 293.231 66.3738 293.339 65.8555 292.826C66.5367 295.575 65.8901 299.613 66.2011 302.486C68.2151 303.696 67.4302 297.56 69.7108 303.967C70.703 309.279 67.4203 307.062 66.828 309.594C69.3998 314.254 72.6627 320.173 75.4369 325.198C78.4727 330.016 81.7011 333.476 83.72 333.452C84.0804 336.591 83.572 340.491 81.4444 337.761C82.6735 339.444 83.6904 340.92 84.5493 342.253C85.4774 343.551 86.282 344.677 87.0126 345.694C88.4046 347.767 89.3326 349.5 90.2409 351.257C91.1492 353.014 92.0328 354.801 93.3261 356.963C94.6194 359.125 96.7025 361.416 99.5113 364.467C96.0707 359.866 94.264 364.629 90.9814 356.687C90.2656 361.105 94.6836 366.021 99.4076 371.575C101.708 374.413 104.665 376.955 107.276 379.68C109.897 382.395 112.282 385.209 114.044 388.181L120.392 389.341C126.71 394.262 124.938 397.12 119.869 394.173C122.08 396.913 124.198 399.189 126.232 401.163C128.359 403.034 130.511 404.465 132.555 405.862C134.633 407.2 136.627 408.489 138.661 409.797C140.66 411.149 142.748 412.448 145.069 413.77C145.38 414.457 144.595 414.777 143.158 413.687L156.333 421.827C158.081 421.91 163.906 422.666 163.861 420.242C162.573 420.716 161.067 420.869 159.019 420.301C157.009 419.679 154.591 418.075 151.372 415.39Z" fill="#A6A6A6"/>
<path d="M163.861 420.242L164.409 420.039L163.871 419.797C163.925 419.985 163.866 420.098 163.861 420.242Z" fill="#A6A6A6"/>
<path d="M88.291 315.39C87.9702 316.984 87.9603 318.184 88.1034 319.131C88.3552 318.292 88.5181 317.226 88.291 315.39Z" fill="#A6A6A6"/>
<path d="M299.95 426.886C296.732 422.28 291.637 429.902 285.077 430.134C290.759 427.848 288.552 425.262 287.496 423.954C284.751 428.273 282.362 428.253 279.208 427.685C276.029 427.113 272.114 426.116 265.579 427.671C265.11 425.667 271.369 424.23 271.749 421.732C270.041 422.428 268.076 423.114 266.067 423.815C264.039 424.324 261.955 424.803 260.045 425.36C256.224 426.466 253.04 427.804 252.246 429.744C249.101 430.04 246.184 429.788 243.464 429.517C240.754 429.245 238.232 428.989 235.862 428.752C231.118 428.436 227.1 427.532 223.324 427.246C232.446 427.059 225.496 423.85 232.234 421.392C227.658 423.055 220.14 424.423 211.758 425.494C203.529 425.933 194.234 426.708 186.82 426.486C186.612 421.974 186.247 421.377 189.1 418.39C176.029 410.561 183.414 420.794 170.747 413.474L176.503 417.063C169.814 415.231 167.667 418.563 164.409 420.044C164.409 420.044 168.496 421.851 172.583 423.657C174.617 424.576 176.656 425.469 178.275 425.928C179.865 426.451 180.921 426.802 180.921 426.802C180.343 428.075 177.406 427.794 174.301 426.812C171.241 425.726 167.919 424.21 166.23 423.801C159.803 424.516 174.045 430.282 171.182 431.886C174.459 431.062 181.099 434.034 185.758 434.769L186.035 436.497C187.94 437.593 189.717 438.378 191.475 438.763C193.252 439.088 194.95 439.187 196.628 439.231C199.99 439.32 203.248 439.182 206.975 440.164C207.547 440.762 207.587 441.102 207.404 441.324C210.391 440.431 213.53 438.58 218.19 438.723L214.666 438.368C221.828 435.85 237.195 435.603 227.673 430.277C227.673 430.277 228.734 430.509 230.324 430.859C231.938 431.052 234.09 431.304 236.237 431.56C240.561 432.069 244.891 432.582 244.891 432.582C242.906 436.457 239.041 442.544 228.31 442.272L226.893 443.773C230.753 445.51 236.583 444.755 240.616 443.546C244.673 442.253 246.949 440.16 244.446 438.318C248.455 433.955 255.005 433.165 262.434 433.51C266.156 433.782 270.026 433.639 273.763 433.199C277.495 432.79 281.089 432.059 284.08 430.583C285.521 433.022 278.576 435.144 275.639 437.445C271.734 438.348 268.886 438.832 268.343 436.684C259.981 438.062 260.914 439.942 261.674 441.739C262.424 443.482 262.898 444.958 253.001 444.982C243.405 444.104 264.557 440.194 250.493 440.505C250.493 440.505 248.025 442.494 245.453 444.104C242.837 445.802 240.216 447.495 240.216 447.495C249.239 448.112 257.325 445.945 264.394 444.839C283.937 440.569 300.054 436.388 311.333 432.572C316.946 430.647 321.621 429.62 324.622 428.401C327.692 427.335 329.356 426.752 329.356 426.752C329.356 426.752 331.799 425.533 336.074 423.396C337.14 422.858 338.315 422.26 339.599 421.609C340.818 420.849 342.141 420.024 343.553 419.146C346.366 417.378 349.545 415.389 353.011 413.217C366.467 403.971 383.181 389.73 396.509 372.537C410.183 355.596 419.685 335.801 425.125 320.592C426.463 316.766 427.687 313.262 428.768 310.152C429.553 306.953 430.234 304.169 430.797 301.874C431.908 297.283 432.54 294.662 432.54 294.662C433.956 285.752 434.307 279.596 434.183 274.828C433.838 270.039 432.031 266.495 428.675 262.896C427.85 264.644 427.47 268.144 427.006 270.735C426.582 273.332 425.644 274.956 424.735 273.08C427.125 275.148 427.638 281.882 425.945 290.782C423.309 291.172 425.96 282.405 425.017 284.577L424.577 286.225C423.398 285.07 422.721 283.397 423.072 280.692C421.714 282.982 420.579 285.816 419.705 288.901C418.555 291.932 417.563 295.2 416.906 298.473C416.161 301.716 416.057 305.072 415.662 307.955C415.366 310.868 415.45 313.523 416.018 315.626C410.696 322.241 414.127 309.026 413.397 304.668C410.553 311.001 408.233 316.885 405.612 322.32C402.64 327.592 400.384 332.903 397.319 337.785C391.331 347.604 385.028 357.368 375.594 367.487C378.749 370.928 375.89 371.535 375.54 376.649L372.687 377.241C374.128 376.915 373.664 382.163 378.206 378.614C363.876 387.593 368.057 396.927 359.448 405.778L358.663 403.31C351.179 409.693 348.479 410.793 341.904 416.441C326.246 420.622 353.356 408.641 346.475 405.931L343.257 409.031C344.175 405.719 344.54 401.098 347.339 397.021C342.605 402.589 337.812 404.727 333.162 407.081C328.324 409.179 323.195 410.749 316.887 415.527C317.489 412.126 328.961 404.702 331.854 402.421C327.436 404.806 319.888 410.181 318.526 408.217L318.985 411.731C310.998 416.031 318.817 408.365 315.292 407.674C305.78 411.761 305.918 414.352 306.654 417.26C307.32 419.99 308.648 423.144 299.95 426.886Z" fill="#A6A6A6"/>
<path d="M101.683 355.394C103.046 357.719 104.556 359.481 106.067 360.947C104.69 359.046 103.273 357.166 101.683 355.394Z" fill="#A6A6A6"/>
<path d="M135.186 383.382C135.655 383.17 136.114 383.042 136.578 383.002C135.833 382.721 135.344 382.82 135.186 383.382Z" fill="#A6A6A6"/>
<path d="M141.297 382.627C141.07 384.473 139.11 382.731 136.578 383.002C139.209 384.167 144.684 388.333 141.297 382.627Z" fill="#A6A6A6"/>
<path d="M416.679 248.517C417.716 249.736 419.024 255.245 419.76 253.888L418.165 245.777L416.679 248.517Z" fill="#A6A6A6"/>
<path d="M419.098 232.005L419.162 223.841C419.162 223.841 417.839 222.72 416.516 221.595C415.203 220.489 413.846 219.428 413.846 219.428C415.258 227.755 417.701 223.5 419.098 232.005Z" fill="#A6A6A6"/>
<path d="M417.198 209.234L418.723 210.759C417.835 209.214 417.43 208.948 417.198 209.234Z" fill="#A6A6A6"/>
<path d="M415.258 209.412L411.284 207.269L416.225 216.737L415.855 212.704C416.971 212.374 416.758 209.747 417.203 209.239L413.93 206.021C414.438 206.874 415.475 208.637 415.258 209.412Z" fill="#A6A6A6"/>
<path d="M412.676 200.808C412.434 201.133 412.261 201.518 411.975 201.785C412.385 201.741 412.597 201.37 412.676 200.808Z" fill="#A6A6A6"/>
<path d="M410.869 179.389C410.682 181.803 407.138 178.649 405.657 178.713C406.832 182.652 408.599 184.177 410.262 185.678C411.758 187.233 413.204 188.739 413.708 192.411C407.458 182.938 413.259 196.888 412.681 200.808C414.902 197.886 415.485 193.324 413.422 185.041L411.195 184.992C409.231 181.008 411.388 182.613 410.869 179.389Z" fill="#A6A6A6"/>
<path d="M383.838 145.087L390.196 148.473C389.939 149.371 391.371 151.928 392.496 154.416C393.721 156.845 394.106 159.54 392.719 160.137C394.974 162.991 396.45 162.763 398.731 164.886C398.726 168.144 398.928 170.316 402.433 172.478C399.654 165.143 398.608 162.507 397.872 160.029C397.013 157.615 396.46 155.305 392.615 149.593C393.35 149.431 394.293 150.892 395.221 152.338L391.159 144.075C389.382 144.904 386.716 143.043 384.929 142.051C382.994 141.172 382.209 140.94 383.838 145.087Z" fill="#A6A6A6"/>
<path d="M377.061 133.842C381.962 138.941 386.889 140.037 386.02 136.068C386.02 136.068 382.95 133.605 379.879 131.142C378.359 129.927 376.838 128.713 375.698 127.8C374.573 126.882 373.699 126.403 373.699 126.403C376.962 129.488 380.743 133.486 377.061 133.842Z" fill="#A6A6A6"/>
<path d="M369.72 126.343C368.787 123.308 367.573 117.448 361.832 116.555C368.249 121.718 362.261 122.626 369.72 126.343Z" fill="#A6A6A6"/>
<path d="M329.228 94.1883C329.228 94.1883 329.973 94.6918 331.084 95.4421C332.199 96.1924 333.695 97.15 335.052 98.3545C337.812 100.635 340.571 102.916 340.571 102.916C340.621 107.827 334.268 100.369 329.568 100.097C339.406 106.608 336.647 103.696 345.779 106.169C348.578 108.119 353.909 109.802 357.947 111.298C353.736 109.185 350.942 107.092 348.81 105.063C346.529 103.266 344.945 101.484 343.39 99.87C341.835 98.2607 340.31 96.8193 338.182 95.7284C336.104 94.5634 333.28 93.9859 329.228 94.1883Z" fill="#A6A6A6"/>
<path d="M351.095 112.408L353.371 112.023L347.24 109.057L351.095 112.408Z" fill="#A6A6A6"/>
<path d="M299.161 77.5529C295.562 74.1222 291.193 73.7076 286.751 73.6335C282.244 73.747 277.584 74.5912 272.815 72.7499C273.901 72.6314 273.21 72.1181 275.373 71.8712C275.373 71.8712 273.26 71.6738 271.142 71.4763C270.086 71.3776 269.034 71.2789 268.24 71.2048C267.45 71.116 266.922 71.116 266.922 71.116L266.63 70.0103C266.828 72.8931 258.046 73.6187 254.339 75.6623C262.568 79.1572 258.846 72.281 266.023 76.0029C264.108 77.2271 262.666 79.1424 260.929 80.1248C265.969 78.8561 267.405 77.2963 269.819 76.0622C275.318 76.5706 273.447 77.9676 273.699 79.1079C276.809 78.7229 278.581 77.4888 280.733 76.6595C282.886 75.8055 285.452 75.3168 289.92 77.0939C295.202 81.0775 285.546 80.1001 295.759 81.6402C293.889 78.7821 296.372 79.6065 299.906 80.9244C303.465 82.1635 307.73 84.7155 310.139 83.9356C313.619 85.683 316.26 87.6428 317.731 89.2767C319.148 91.0439 319.419 92.4606 318.368 92.8654C319.557 89.484 326.927 89.6272 332.797 91.3351L319.676 88.3289C319.75 88.2253 317.153 82.8101 317.153 82.8101C313.338 82.4596 310.253 81.7636 307.286 80.7813C305.805 80.2926 304.354 79.7299 302.863 79.1128C301.338 78.6192 299.758 78.1058 298.075 77.5628L299.161 77.5529Z" fill="#A6A6A6"/>
<path d="M260.929 80.125C260.04 80.3422 259.275 80.5643 258.14 80.742C259.211 80.8803 260.095 80.5939 260.929 80.125Z" fill="#A6A6A6"/>
<path d="M319.75 94.8596L316.734 94.3462L318.111 96.3454L319.75 94.8596Z" fill="#A6A6A6"/>
<path d="M254.502 82.7905C256.141 82.9978 256.797 81.6453 255.134 81.4429L252.537 83.2644L254.502 82.7905Z" fill="#A6A6A6"/>
<path d="M247.063 79.878L242.832 77.6616L240.32 79.7398L247.063 79.878Z" fill="#A6A6A6"/>
<path d="M101.052 157.008C105.233 153.182 102.799 152.136 101.59 150.142C98.7166 153.439 99.2547 153.864 100.099 154.061C100.948 154.268 102.113 154.278 101.052 157.008Z" fill="#A6A6A6"/>
<path d="M75.9158 260.068C77.2141 253.977 74.9977 248.502 75.3383 242.431C73.6007 247.787 73.9709 255.221 75.9158 260.068Z" fill="#A6A6A6"/>
<path d="M92.492 301.775C91.2727 300.674 90.3151 298.873 90.7199 302.002L84.4014 297.92C84.9197 306.786 90.4484 302.664 92.492 301.775Z" fill="#A6A6A6"/>
<path d="M114.014 345.032C114.014 345.032 113.604 344.716 113.091 344.178C112.558 343.645 111.847 342.939 111.131 342.228C109.695 340.797 108.258 339.365 108.258 339.365L110.272 342.944C107.518 342.302 105.923 341.577 102.893 339.79C106.99 344.435 111.536 348.172 114.014 345.032Z" fill="#A6A6A6"/>
<path d="M98.3464 333.911C98.7759 334.72 99.3929 335.554 100.079 336.404C100.158 335.322 100.444 334.557 98.3464 333.911Z" fill="#A6A6A6"/>
<path d="M101.831 339.153C102.246 339.4 102.537 339.572 102.893 339.785C101.905 338.664 100.943 337.519 100.074 336.403C100.015 337.188 100.148 338.141 101.831 339.153Z" fill="#A6A6A6"/>
<path d="M115.52 351.212C115.52 351.212 117.687 353.883 119.849 356.558C120.886 357.931 122.026 359.209 122.979 360.088C123.887 361.006 124.489 361.613 124.489 361.613C124.489 361.613 121.675 357.175 121.804 357.082C118.679 358.108 119.479 350.887 115.52 351.212Z" fill="#A6A6A6"/>
<path d="M167.899 400.936C167.899 400.936 167.84 401.795 167.785 402.654C167.751 403.488 167.716 404.317 167.716 404.317C171.675 406.593 176.952 407.472 181.454 408.587C186.04 409.565 190.078 410.34 191.756 413.672C188.755 410.547 199.778 412.907 190.26 408.494C185.137 410.019 173.206 404.431 167.899 400.936Z" fill="#A6A6A6"/>
<path d="M196.747 418.188C195.068 418.534 196.949 419.955 197.897 421.012C201.002 422.182 204.852 421.718 203.455 420.029C199.763 423.223 200.716 416.727 196.747 418.188Z" fill="#A6A6A6"/>
<path d="M238.246 425.307C235.596 425.237 231.849 425.351 235.65 426.338C243.701 426.565 241.771 422.967 245.73 421.096C239.411 418.914 233.389 423.416 238.246 425.307Z" fill="#A6A6A6"/>
<path d="M307.128 439.473C305.4 437.371 298.627 439.39 297.24 440.727C299.368 439.646 303.776 439.434 307.128 439.473Z" fill="#A6A6A6"/>
<path d="M301.856 418.084L299.555 418.267L298.114 422.804C298.114 422.804 299.077 421.673 300.044 420.543C300.977 419.353 301.856 418.084 301.856 418.084Z" fill="#A6A6A6"/>
<path d="M343.706 395.358L347.023 389.666C347.023 389.666 345.315 391.078 343.612 392.495C342.783 393.24 341.865 393.857 341.169 394.306C340.483 394.77 340.023 395.076 340.023 395.076L343.706 395.358Z" fill="#A6A6A6"/>
<path d="M351.402 390.451C351.402 390.451 352.966 389.222 354.536 387.998C355.321 387.386 356.101 386.773 356.688 386.314C357.291 385.875 357.636 385.51 357.636 385.51C357.686 385.579 354.783 386.408 354.783 386.408C351.234 388.057 353.5 388.812 351.402 390.451Z" fill="#A6A6A6"/>
<path d="M369.158 374.551C368.58 375.41 367.825 375.514 367.099 375.593L362.928 381.684L369.158 374.551Z" fill="#A6A6A6"/>
<path d="M435.324 262.245C437.911 264.328 436.607 256.297 437.323 253.888C436.672 253.443 432.994 258.493 435.324 262.245Z" fill="#A6A6A6"/>
<path d="M210.249 225.061L202.209 216.981H186.099V243.901H207.589L210.249 241.251V225.061ZM204.899 238.521H191.479V222.371H199.519L204.899 227.751V238.521Z" fill="black"/>
<path d="M236.548 243.901V238.521H219.088V233.171H235.198V227.791H219.088V222.371H236.548V216.981H213.708V243.901H236.548Z" fill="black"/>
<path d="M261.499 243.901L264.149 241.251V235.861H258.809V238.521H245.389V222.371H258.809V225.061H264.149V219.711L261.499 216.981H242.659L240.009 219.711V241.251L242.659 243.901H261.499Z" fill="black"/>
<path d="M272.999 243.901V216.981H267.609V243.901H272.999Z" fill="black"/>
<path d="M282.229 238.521V233.171H295.639V238.521H282.229ZM282.229 227.791V222.371H295.639V227.791H282.229ZM298.339 243.901L300.989 241.251V233.171L298.339 230.481L300.989 227.791V219.711L298.339 216.981H276.839V243.901H298.339Z" fill="black"/>
<path d="M327.669 243.901V238.521H310.219V233.171H326.329V227.791H310.219V222.371H327.669V216.981H304.829V243.901H327.669Z" fill="black"/>
<path d="M331.129 216.981V243.901H353.969V238.521H336.519V216.981H331.129Z" fill="black"/>
<path d="M150.029 278.661L152.689 276.011V270.621H147.339V273.281H133.919V257.131H147.339V259.821H152.689V254.471L150.029 251.741H131.189L128.539 254.471V276.011L131.189 278.661H150.029Z" fill="black"/>
<path d="M161.529 273.281V257.131H174.949V273.281H161.529ZM177.639 278.661L180.289 276.011V254.471L177.639 251.741H158.799L156.149 254.471V276.011L158.799 278.661H177.639Z" fill="black"/>
<path d="M189.519 265.241V257.131H202.939V265.241H189.519ZM208.289 278.661V273.281L205.629 270.621L208.289 267.931V254.471L205.629 251.741H184.139V278.661H189.519V270.621H197.559L200.249 273.281L202.939 276.011V278.661H208.289Z" fill="black"/>
<path d="M217.509 265.241V257.131H230.929V265.241H217.509ZM217.509 278.661V270.621H233.619L236.279 267.931V254.471L233.619 251.741H212.129V278.661H217.509Z" fill="black"/>
<path d="M245.119 273.281V257.131H258.539V273.281H245.119ZM261.229 278.661L263.879 276.011V254.471L261.229 251.741H242.389L239.739 254.471V276.011L242.389 278.661H261.229Z" fill="black"/>
<path d="M273.109 265.241V257.131H286.529V265.241H273.109ZM291.879 278.661V273.281L289.219 270.621L291.879 267.931V254.471L289.219 251.741H267.729V278.661H273.109V270.621H281.149L283.839 273.281L286.529 276.011V278.661H291.879Z" fill="black"/>
<path d="M300.719 265.241V262.551L306.059 257.131H314.139V265.241H300.719ZM300.719 278.661V270.621H314.139V278.661H319.479V251.741H303.369L295.339 259.861V278.661H300.719Z" fill="black"/>
<path d="M336.978 278.661V257.131H346.318V251.741H322.168V257.131H331.598V278.661H336.978Z" fill="black"/>
<path d="M354.399 278.661V251.741H349.009V278.661H354.399Z" fill="black"/>
<path d="M363.619 273.281V257.131H377.039V273.281H363.619ZM379.729 278.661L382.389 276.011V254.471L379.729 251.741H360.889L358.239 254.471V276.011L360.889 278.661H379.729Z" fill="black"/>
<path d="M410.379 278.661V251.741H405.029V269.661L391.619 251.741H386.229V278.661H391.619V260.701L405.029 278.661H410.379Z" fill="black"/>
<path d="M302.37 289.077H303.65V290.367H306.22V289.077L304.94 286.507H302.37V289.077ZM298.51 292.937L299.8 295.507H301.08V286.507H299.8L298.51 289.077V292.937ZM306.22 299.357L304.94 301.927H303.65V295.507H302.37V292.937H304.94L306.22 295.507V299.357ZM298.51 299.357L299.8 301.927H302.37V299.357H301.08V298.077H298.51V299.357Z" fill="black"/>
<path d="M309.3 299.357L310.59 301.927H313.16V299.357H311.87V289.077H310.59L309.3 291.647V299.357ZM313.16 291.647H314.44V301.927H315.73L317.01 299.357V291.647L315.73 289.077H313.16V291.647Z" fill="black"/>
<path d="M320.1 299.357L321.38 301.927H323.95V299.357H322.67V289.077H320.1V299.357ZM325.24 301.927H326.52L327.81 299.357V289.077H325.24V301.927Z" fill="black"/>
<path d="M330.889 301.927H333.459V294.217L334.749 296.787V294.217L332.179 289.077H330.889V301.927ZM336.029 299.357L337.319 301.927H338.599V289.077H336.029V299.357Z" fill="black"/>
<path d="M341.689 301.927H344.259V289.077H341.689V301.927ZM345.539 291.647H346.829V299.357H345.539V301.927H348.109L349.399 299.357V291.647L348.109 289.077H345.539V291.647Z" fill="black"/>
<path d="M356.339 291.647H357.619V292.937H360.189V291.647L358.909 289.077H356.339V291.647ZM352.479 294.217L353.769 296.787H355.049V289.077H353.769L352.479 291.647V294.217ZM360.189 299.357L358.909 301.927H357.619V296.787H356.339V294.217H358.909L360.189 296.787V299.357ZM352.479 299.357L353.769 301.927H356.339V299.357H355.049V298.077H352.479V299.357Z" fill="black"/>
<path d="M372.269 291.647H373.549V292.937H376.119V291.647L374.839 289.077H372.269V291.647ZM368.409 294.217L369.699 296.787H370.979V289.077H369.699L368.409 291.647V294.217ZM376.119 299.357L374.839 301.927H373.549V296.787H372.269V294.217H374.839L376.119 296.787V299.357ZM368.409 299.357L369.699 301.927H372.269V299.357H370.979V298.077H368.409V299.357Z" fill="black"/>
<path d="M379.209 301.927H381.779V296.787H383.059V294.217H381.779V289.077H380.489L379.209 291.647V301.927ZM383.059 291.647H384.349V301.927H386.919V289.077H383.059V291.647Z" fill="black"/>
<path d="M390 301.927H392.57V289.077H390V301.927ZM393.86 291.647H397.71V289.077H393.86V291.647ZM393.86 296.787H396.43V294.217H393.86V296.787Z" fill="black"/>
<path d="M400.179 301.927H402.749V289.077H400.179V301.927ZM404.029 291.647H407.889V289.077H404.029V291.647ZM404.029 296.787H406.599V294.217H404.029V296.787ZM404.029 301.927H407.889V299.357H404.029V301.927Z" fill="black"/>
<path d="M82.8625 223.766C82.8625 222.913 82.116 222.167 81.2628 222.167C80.4096 222.167 79.6631 222.913 79.6631 223.766V227.499H82.8625V223.766Z" fill="black"/>
<path d="M79.6631 234.431C79.6631 235.284 80.4096 236.031 81.2628 236.031C82.116 236.031 82.8625 235.284 82.8625 234.431V230.698H79.6631V234.431Z" fill="black"/>
<path d="M89.2614 221.633C89.2614 220.78 88.5149 220.034 87.6617 220.034C86.8085 220.034 86.062 220.78 86.062 221.633V227.499H89.2614V221.633Z" fill="black"/>
<path d="M86.062 236.564C86.062 237.417 86.8085 238.164 87.6617 238.164C88.5149 238.164 89.2614 237.417 89.2614 236.564V230.698H86.062V236.564Z" fill="black"/>
<path d="M92.4607 250.428C92.4607 251.281 93.2072 252.028 94.0604 252.028C94.9136 252.028 95.6601 251.281 95.6601 250.428V230.698H92.4607V250.428Z" fill="black"/>
<path d="M95.6601 207.769C95.6601 206.916 94.9136 206.169 94.0604 206.169C93.2072 206.169 92.4607 206.916 92.4607 207.769V227.499H95.6601V207.769Z" fill="black"/>
<path d="M105.259 264.292C105.259 265.145 106.005 265.892 106.858 265.892C107.711 265.892 108.458 265.145 108.458 264.292V230.698H105.259V264.292Z" fill="black"/>
<path d="M108.458 193.905C108.458 193.052 107.711 192.305 106.858 192.305C106.005 192.305 105.259 193.052 105.259 193.905V227.499H108.458V193.905Z" fill="black"/>
<path d="M98.8596 271.757C98.8596 272.611 99.6062 273.357 100.459 273.357C101.313 273.357 102.059 272.611 102.059 271.757V230.698H98.8596V271.757Z" fill="black"/>
<path d="M102.059 186.44C102.059 185.586 101.313 184.84 100.459 184.84C99.6062 184.84 98.8596 185.586 98.8596 186.44V227.499H102.059V186.44Z" fill="black"/>
<path d="M111.657 253.627C111.657 254.481 112.404 255.227 113.257 255.227C114.11 255.227 114.857 254.481 114.857 253.627V230.698H111.657V253.627Z" fill="black"/>
<path d="M114.857 204.569C114.857 203.716 114.11 202.97 113.257 202.97C112.404 202.97 111.657 203.716 111.657 204.569V227.499H114.857V204.569Z" fill="black"/>
<path d="M121.256 213.101C121.256 212.248 120.509 211.501 119.656 211.501C118.803 211.501 118.056 212.248 118.056 213.101V227.499H121.256V213.101Z" fill="black"/>
<path d="M118.056 245.096C118.056 245.949 118.803 246.695 119.656 246.695C120.509 246.695 121.256 245.949 121.256 245.096V230.698H118.056V245.096Z" fill="black"/>
<path d="M124.455 239.763C124.455 240.616 125.202 241.363 126.055 241.363C126.908 241.363 127.654 240.616 127.654 239.763V230.698H124.455V239.763Z" fill="black"/>
<path d="M127.654 218.434C127.654 217.581 126.908 216.834 126.055 216.834C125.202 216.834 124.455 217.581 124.455 218.434V227.499H127.654V218.434Z" fill="black"/>
<path d="M134.053 213.101C134.053 212.248 133.307 211.501 132.453 211.501C131.6 211.501 130.854 212.248 130.854 213.101V227.499H134.053V213.101Z" fill="black"/>
<path d="M130.854 245.096C130.854 245.949 131.6 246.695 132.453 246.695C133.307 246.695 134.053 245.949 134.053 245.096V230.698H130.854V245.096Z" fill="black"/>
<path d="M140.452 221.633C140.452 220.78 139.706 220.034 138.852 220.034C137.999 220.034 137.253 220.78 137.253 221.633V227.499H140.452V221.633Z" fill="black"/>
<path d="M137.253 236.564C137.253 237.417 137.999 238.164 138.852 238.164C139.706 238.164 140.452 237.417 140.452 236.564V230.698H137.253V236.564Z" fill="black"/>
<path d="M143.652 234.431C143.652 235.284 144.398 236.031 145.251 236.031C146.105 236.031 146.851 235.284 146.851 234.431V230.698H143.652V234.431Z" fill="black"/>
<path d="M146.851 223.766C146.851 222.913 146.105 222.167 145.251 222.167C144.398 222.167 143.652 222.913 143.652 223.766V227.499H146.851V223.766Z" fill="black"/>
<path d="M150.05 236.564C150.05 237.417 150.797 238.164 151.65 238.164C152.503 238.164 153.25 237.417 153.25 236.564V230.698H150.05V236.564Z" fill="black"/>
<path d="M153.25 221.633C153.25 220.78 152.503 220.034 151.65 220.034C150.797 220.034 150.05 220.78 150.05 221.633V227.499H153.25V221.633Z" fill="black"/>
<path d="M156.449 234.431C156.449 235.284 157.196 236.031 158.049 236.031C158.902 236.031 159.649 235.284 159.649 234.431V230.698H156.449V234.431Z" fill="black"/>
<path d="M159.649 223.766C159.649 222.913 158.902 222.167 158.049 222.167C157.196 222.167 156.449 222.913 156.449 223.766V227.499H159.649V223.766Z" fill="black"/>
<path d="M172.446 223.766C172.446 222.913 171.7 222.167 170.847 222.167C169.993 222.167 169.247 222.913 169.247 223.766V227.499H172.446V223.766Z" fill="black"/>
<path d="M169.247 234.431C169.247 235.284 169.993 236.031 170.847 236.031C171.7 236.031 172.446 235.284 172.446 234.431V230.698H169.247V234.431Z" fill="black"/>
<path d="M162.848 235.497C162.848 236.351 163.595 237.097 164.448 237.097C165.301 237.097 166.048 236.351 166.048 235.497V230.698H162.848V235.497Z" fill="black"/>
<path d="M166.048 222.7C166.048 221.847 165.301 221.1 164.448 221.1C163.595 221.1 162.848 221.847 162.848 222.7V227.499H166.048V222.7Z" fill="black"/>
<path d="M175.646 234.431C175.646 235.284 176.392 236.031 177.245 236.031C178.099 236.031 178.845 235.284 178.845 234.431V230.698H175.646V234.431Z" fill="black"/>
<path d="M178.845 223.766C178.845 222.913 178.099 222.167 177.245 222.167C176.392 222.167 175.646 222.913 175.646 223.766V227.499H178.845V223.766Z" fill="black"/>
</svg>
