<svg width="331" height="118" viewBox="0 0 331 118" fill="none" xmlns="http://www.w3.org/2000/svg">
<path d="M130.585 40.2216L122.545 32.1416H106.435V59.0616H127.925L130.585 56.4116V40.2216ZM125.235 53.6816H111.815V37.5316H119.855L125.235 42.9116V53.6816Z" fill="black"/>
<path d="M156.885 59.0616V53.6816H139.425V48.3316H155.535V42.9516H139.425V37.5316H156.885V32.1416H134.045V59.0616H156.885Z" fill="black"/>
<path d="M181.835 59.0616L184.485 56.4116V51.0216H179.145V53.6816H165.725V37.5316H179.145V40.2216H184.485V34.8716L181.835 32.1416H162.995L160.345 34.8716V56.4116L162.995 59.0616H181.835Z" fill="black"/>
<path d="M193.335 59.0616V32.1416H187.945V59.0616H193.335Z" fill="black"/>
<path d="M202.565 53.6816V48.3316H215.975V53.6816H202.565ZM202.565 42.9516V37.5316H215.975V42.9516H202.565ZM218.675 59.0616L221.326 56.4116V48.3316L218.675 45.6416L221.326 42.9516V34.8716L218.675 32.1416H197.175V59.0616H218.675Z" fill="black"/>
<path d="M248.005 59.0616V53.6816H230.555V48.3316H246.665V42.9516H230.555V37.5316H248.005V32.1416H225.165V59.0616H248.005Z" fill="black"/>
<path d="M251.465 32.1416V59.0616H274.305V53.6816H256.855V32.1416H251.465Z" fill="black"/>
<path d="M70.3655 93.8216L73.0255 91.1716V85.7816H67.6755V88.4416H54.2555V72.2916H67.6755V74.9816H73.0255V69.6316L70.3655 66.9016H51.5255L48.8755 69.6316V91.1716L51.5255 93.8216H70.3655Z" fill="black"/>
<path d="M81.8655 88.4416V72.2916H95.2855V88.4416H81.8655ZM97.9755 93.8216L100.625 91.1716V69.6316L97.9755 66.9016H79.1355L76.4855 69.6316V91.1716L79.1355 93.8216H97.9755Z" fill="black"/>
<path d="M109.855 80.4016V72.2916H123.275V80.4016H109.855ZM128.625 93.8216V88.4416L125.965 85.7816L128.625 83.0916V69.6316L125.965 66.9016H104.475V93.8216H109.855V85.7816H117.895L120.585 88.4416L123.275 91.1716V93.8216H128.625Z" fill="black"/>
<path d="M137.845 80.4016V72.2916H151.265V80.4016H137.845ZM137.845 93.8216V85.7816H153.955L156.615 83.0916V69.6316L153.955 66.9016H132.465V93.8216H137.845Z" fill="black"/>
<path d="M165.455 88.4416V72.2916H178.875V88.4416H165.455ZM181.565 93.8216L184.215 91.1716V69.6316L181.565 66.9016H162.725L160.075 69.6316V91.1716L162.725 93.8216H181.565Z" fill="black"/>
<path d="M193.445 80.4016V72.2916H206.865V80.4016H193.445ZM212.215 93.8216V88.4416L209.555 85.7816L212.215 83.0916V69.6316L209.555 66.9016H188.065V93.8216H193.445V85.7816H201.485L204.175 88.4416L206.865 91.1716V93.8216H212.215Z" fill="black"/>
<path d="M221.055 80.4016V77.7116L226.395 72.2916H234.475V80.4016H221.055ZM221.055 93.8216V85.7816H234.475V93.8216H239.815V66.9016H223.705L215.675 75.0216V93.8216H221.055Z" fill="black"/>
<path d="M257.315 93.8216V72.2916H266.655V66.9016H242.505V72.2916H251.935V93.8216H257.315Z" fill="black"/>
<path d="M274.735 93.8216V66.9016H269.345V93.8216H274.735Z" fill="black"/>
<path d="M283.956 88.4416V72.2916H297.375V88.4416H283.956ZM300.065 93.8216L302.725 91.1716V69.6316L300.065 66.9016H281.225L278.576 69.6316V91.1716L281.225 93.8216H300.065Z" fill="black"/>
<path d="M330.715 93.8216V66.9016H325.366V84.8216L311.956 66.9016H306.565V93.8216H311.956V75.8616L325.366 93.8216H330.715Z" fill="black"/>
<path d="M222.706 104.237H223.986V105.527H226.556V104.237L225.276 101.667H222.706V104.237ZM218.846 108.097L220.136 110.667H221.416V101.667H220.136L218.846 104.237V108.097ZM226.556 114.517L225.276 117.087H223.986V110.667H222.706V108.097H225.276L226.556 110.667V114.517ZM218.846 114.517L220.136 117.087H222.706V114.517H221.416V113.237H218.846V114.517Z" fill="black"/>
<path d="M229.636 114.517L230.926 117.087H233.496V114.517H232.206V104.237H230.926L229.636 106.807V114.517ZM233.496 106.807H234.776V117.087H236.066L237.346 114.517V106.807L236.066 104.237H233.496V106.807Z" fill="black"/>
<path d="M240.436 114.517L241.716 117.087H244.286V114.517H243.006V104.237H240.436V114.517ZM245.576 117.087H246.856L248.146 114.517V104.237H245.576V117.087Z" fill="black"/>
<path d="M251.226 117.087H253.796V109.377L255.086 111.947V109.377L252.516 104.237H251.226V117.087ZM256.366 114.517L257.656 117.087H258.936V104.237H256.366V114.517Z" fill="black"/>
<path d="M262.026 117.087H264.596V104.237H262.026V117.087ZM265.876 106.807H267.166V114.517H265.876V117.087H268.446L269.736 114.517V106.807L268.446 104.237H265.876V106.807Z" fill="black"/>
<path d="M276.676 106.807H277.956V108.097H280.526V106.807L279.246 104.237H276.676V106.807ZM272.816 109.377L274.106 111.947H275.386V104.237H274.106L272.816 106.807V109.377ZM280.526 114.517L279.246 117.087H277.956V111.947H276.676V109.377H279.246L280.526 111.947V114.517ZM272.816 114.517L274.106 117.087H276.676V114.517H275.386V113.237H272.816V114.517Z" fill="black"/>
<path d="M292.606 106.807H293.886V108.097H296.456V106.807L295.176 104.237H292.606V106.807ZM288.746 109.377L290.036 111.947H291.316V104.237H290.036L288.746 106.807V109.377ZM296.456 114.517L295.176 117.087H293.886V111.947H292.606V109.377H295.176L296.456 111.947V114.517ZM288.746 114.517L290.036 117.087H292.606V114.517H291.316V113.237H288.746V114.517Z" fill="black"/>
<path d="M299.546 117.087H302.116V111.947H303.396V109.377H302.116V104.237H300.826L299.546 106.807V117.087ZM303.396 106.807H304.686V117.087H307.256V104.237H303.396V106.807Z" fill="black"/>
<path d="M310.336 117.087H312.906V104.237H310.336V117.087ZM314.196 106.807H318.046V104.237H314.196V106.807ZM314.196 111.947H316.766V109.377H314.196V111.947Z" fill="black"/>
<path d="M320.516 117.087H323.086V104.237H320.516V117.087ZM324.366 106.807H328.226V104.237H324.366V106.807ZM324.366 111.947H326.936V109.377H324.366V111.947ZM324.366 117.087H328.226V114.517H324.366V117.087Z" fill="black"/>
<path d="M3.19942 38.9263C3.19942 38.0731 2.45289 37.3266 1.59971 37.3266C0.746532 37.3266 0 38.0731 0 38.9263V42.659H3.19942V38.9263Z" fill="black"/>
<path d="M0 49.591C0 50.4442 0.746532 51.1907 1.59971 51.1907C2.45289 51.1907 3.19942 50.4442 3.19942 49.591V45.8584H0V49.591Z" fill="black"/>
<path d="M9.59826 36.7933C9.59826 35.9402 8.85173 35.1936 7.99855 35.1936C7.14537 35.1936 6.39884 35.9402 6.39884 36.7933V42.659H9.59826V36.7933Z" fill="black"/>
<path d="M6.39884 51.724C6.39884 52.5772 7.14537 53.3237 7.99855 53.3237C8.85173 53.3237 9.59826 52.5772 9.59826 51.724V45.8584H6.39884V51.724Z" fill="black"/>
<path d="M12.7977 65.5881C12.7977 66.4413 13.5442 67.1878 14.3974 67.1878C15.2506 67.1878 15.9971 66.4413 15.9971 65.5881V45.8584H12.7977V65.5881Z" fill="black"/>
<path d="M15.9971 22.9292C15.9971 22.076 15.2506 21.3295 14.3974 21.3295C13.5442 21.3295 12.7977 22.076 12.7977 22.9292V42.659H15.9971V22.9292Z" fill="black"/>
<path d="M25.5954 79.4523C25.5954 80.3055 26.3419 81.052 27.1951 81.052C28.0483 81.052 28.7948 80.3055 28.7948 79.4523V45.8584H25.5954V79.4523Z" fill="black"/>
<path d="M28.7948 9.06503C28.7948 8.21186 28.0483 7.46532 27.1951 7.46532C26.3419 7.46532 25.5954 8.21186 25.5954 9.06503V42.659H28.7948V9.06503Z" fill="black"/>
<path d="M19.1965 86.9176C19.1965 87.7708 19.9431 88.5173 20.7962 88.5173C21.6494 88.5173 22.3959 87.7708 22.3959 86.9176V45.8584H19.1965V86.9176Z" fill="black"/>
<path d="M22.3959 1.59971C22.3959 0.746532 21.6494 0 20.7962 0C19.9431 0 19.1965 0.746532 19.1965 1.59971V42.659H22.3959V1.59971Z" fill="black"/>
<path d="M31.9942 68.7876C31.9942 69.6407 32.7407 70.3873 33.5939 70.3873C34.4471 70.3873 35.1936 69.6407 35.1936 68.7876V45.8584H31.9942V68.7876Z" fill="black"/>
<path d="M35.1936 19.7298C35.1936 18.8766 34.4471 18.13 33.5939 18.13C32.7407 18.13 31.9942 18.8766 31.9942 19.7298V42.6589H35.1936V19.7298Z" fill="black"/>
<path d="M41.5925 28.2616C41.5925 27.4084 40.8459 26.6618 39.9928 26.6618C39.1396 26.6618 38.3931 27.4084 38.3931 28.2616V42.659H41.5925V28.2616Z" fill="black"/>
<path d="M38.3931 60.2558C38.3931 61.1089 39.1396 61.8555 39.9928 61.8555C40.8459 61.8555 41.5925 61.1089 41.5925 60.2558V45.8584H38.3931V60.2558Z" fill="black"/>
<path d="M44.7919 54.9234C44.7919 55.7766 45.5384 56.5231 46.3916 56.5231C47.2448 56.5231 47.9913 55.7766 47.9913 54.9234V45.8584H44.7919V54.9234Z" fill="black"/>
<path d="M47.9913 33.5939C47.9913 32.7408 47.2448 31.9942 46.3916 31.9942C45.5384 31.9942 44.7919 32.7408 44.7919 33.5939V42.659H47.9913V33.5939Z" fill="black"/>
<path d="M54.3902 28.2616C54.3902 27.4084 53.6436 26.6618 52.7905 26.6618C51.9373 26.6618 51.1907 27.4084 51.1907 28.2616V42.659H54.3902V28.2616Z" fill="black"/>
<path d="M51.1907 60.2558C51.1907 61.1089 51.9373 61.8555 52.7905 61.8555C53.6436 61.8555 54.3902 61.1089 54.3902 60.2558V45.8584H51.1907V60.2558Z" fill="black"/>
<path d="M60.789 36.7933C60.789 35.9402 60.0425 35.1936 59.1893 35.1936C58.3361 35.1936 57.5896 35.9402 57.5896 36.7933V42.659H60.789V36.7933Z" fill="black"/>
<path d="M57.5896 51.724C57.5896 52.5772 58.3361 53.3237 59.1893 53.3237C60.0425 53.3237 60.789 52.5772 60.789 51.724V45.8584H57.5896V51.724Z" fill="black"/>
<path d="M63.9884 49.591C63.9884 50.4442 64.735 51.1907 65.5881 51.1907C66.4413 51.1907 67.1879 50.4442 67.1879 49.591V45.8584H63.9884V49.591Z" fill="black"/>
<path d="M67.1879 38.9263C67.1879 38.0731 66.4413 37.3266 65.5881 37.3266C64.735 37.3266 63.9884 38.0731 63.9884 38.9263V42.659H67.1879V38.9263Z" fill="black"/>
<path d="M70.3873 51.724C70.3873 52.5772 71.1338 53.3237 71.987 53.3237C72.8401 53.3237 73.5867 52.5772 73.5867 51.724V45.8584H70.3873V51.724Z" fill="black"/>
<path d="M73.5867 36.7933C73.5867 35.9402 72.8401 35.1936 71.987 35.1936C71.1338 35.1936 70.3873 35.9402 70.3873 36.7933V42.659H73.5867V36.7933Z" fill="black"/>
<path d="M76.7861 49.591C76.7861 50.4442 77.5326 51.1907 78.3858 51.1907C79.239 51.1907 79.9855 50.4442 79.9855 49.591V45.8584H76.7861V49.591Z" fill="black"/>
<path d="M79.9855 38.9263C79.9855 38.0731 79.239 37.3266 78.3858 37.3266C77.5326 37.3266 76.7861 38.0731 76.7861 38.9263V42.659H79.9855V38.9263Z" fill="black"/>
<path d="M92.7832 38.9263C92.7832 38.0731 92.0367 37.3266 91.1835 37.3266C90.3303 37.3266 89.5838 38.0731 89.5838 38.9263V42.659H92.7832V38.9263Z" fill="black"/>
<path d="M89.5838 49.591C89.5838 50.4442 90.3303 51.1907 91.1835 51.1907C92.0367 51.1907 92.7832 50.4442 92.7832 49.591V45.8584H89.5838V49.591Z" fill="black"/>
<path d="M83.1849 50.6575C83.1849 51.5107 83.9315 52.2572 84.7847 52.2572C85.6378 52.2572 86.3844 51.5107 86.3844 50.6575V45.8584H83.1849V50.6575Z" fill="black"/>
<path d="M86.3844 37.8598C86.3844 37.0066 85.6378 36.2601 84.7847 36.2601C83.9315 36.2601 83.1849 37.0066 83.1849 37.8598V42.659H86.3844V37.8598Z" fill="black"/>
<path d="M95.9826 49.591C95.9826 50.4442 96.7292 51.1907 97.5823 51.1907C98.4355 51.1907 99.1821 50.4442 99.1821 49.591V45.8584H95.9826V49.591Z" fill="black"/>
<path d="M99.1821 38.9263C99.1821 38.0731 98.4355 37.3266 97.5823 37.3266C96.7292 37.3266 95.9826 38.0731 95.9826 38.9263V42.659H99.1821V38.9263Z" fill="black"/>
</svg>
